<svg xmlns="http://www.w3.org/2000/svg" xmlns:xlink="http://www.w3.org/1999/xlink" xml:space="preserve" style="shape-rendering:geometricPrecision;text-rendering:geometricPrecision;image-rendering:optimizeQuality;" viewBox="0 0 6827 6827" x="0px" y="0px" fill-rule="evenodd" clip-rule="evenodd"><defs><style type="text/css">
   
    .fil2 {fill:none}

   
  </style></defs><g><path class="fil0" d="M5396 1959l0 3831c0,51 -21,97 -54,130 -33,33 -79,54 -130,54l-3597 0c-51,0 -97,-21 -130,-54 -33,-33 -54,-79 -54,-130l0 -4752c0,-51 21,-97 54,-130 33,-33 79,-54 130,-54l0 0 2674 0c2,0 5,0 7,0 24,0 46,11 61,28l1011 1017c17,15 28,36 28,61zm-160 3831l0 -3751 -940 0c-44,0 -80,-36 -80,-80l0 -946 -2601 0 0 0c-7,0 -13,3 -17,7 -4,4 -7,10 -7,17l0 4752c0,7 3,13 7,17 4,4 10,7 17,7l3597 0c7,0 13,-3 17,-7 4,-4 7,-10 7,-17z"></path><path class="fil1" d="M4860 3874l0 -921c0,-53 -21,-100 -56,-135 -35,-35 -82,-56 -135,-56l-2512 0c-53,0 -100,21 -135,56 -35,35 -56,82 -56,135l0 921c0,53 21,100 56,135 35,35 82,56 135,56l2512 0c53,0 100,-21 135,-56 35,-35 56,-82 56,-135zm-666 -559l-130 29c-5,-15 -9,-25 -14,-32 -8,-11 -18,-20 -30,-26 -12,-6 -25,-9 -40,-9 -33,0 -59,13 -77,40 -13,20 -20,51 -20,94 0,53 8,89 24,109 16,20 39,29 68,29 28,0 50,-8 64,-24 14,-16 25,-39 31,-69l129 39c-9,36 -22,66 -41,91 -19,24 -42,43 -70,55 -28,12 -63,19 -106,19 -52,0 -94,-8 -127,-23 -33,-15 -61,-42 -85,-80 -24,-38 -36,-87 -36,-146 0,-79 21,-140 63,-182 42,-42 101,-64 178,-64 60,0 107,12 142,36 34,24 60,62 77,112zm-586 -84c43,43 64,102 64,179 0,56 -9,102 -28,137 -19,36 -46,63 -81,83 -36,20 -80,30 -133,30 -54,0 -98,-9 -134,-26 -35,-17 -64,-44 -86,-81 -22,-37 -33,-84 -33,-139 0,-78 22,-139 65,-182 43,-43 104,-65 181,-65 79,0 141,21 184,64zm-604 -38c27,12 49,29 66,50 17,22 30,47 38,77 8,29 12,60 12,92 0,51 -6,91 -17,119 -12,28 -28,52 -48,71 -21,19 -43,32 -66,38 -32,9 -62,13 -88,13l-219 0 0 -477 219 0c43,0 78,6 105,18z"></path><path class="fil1" d="M3498 3519c17,-21 26,-58 26,-111 0,-45 -9,-78 -27,-99 -18,-21 -43,-31 -74,-31 -30,0 -54,10 -72,32 -18,21 -27,56 -27,104 0,48 9,83 27,104 18,21 42,32 73,32 32,0 56,-10 74,-31z"></path><path class="fil1" d="M2970 3414c0,-51 -8,-85 -25,-104 -17,-19 -44,-28 -82,-28l-37 0 0 261 36 0c31,0 53,-3 66,-10 13,-7 23,-19 31,-36 7,-17 11,-45 11,-83z"></path></g><rect class="fil2" width="6827" height="6827"></rect></svg>