<svg xmlns="http://www.w3.org/2000/svg" xmlns:xlink="http://www.w3.org/1999/xlink" version="1.1" x="0px" y="0px" viewBox="0 0 24 24" style="enable-background:new 0 0 24 24;" xml:space="preserve"><g><g><g><path d="M22.5,19h-4c-0.276,0-0.5-0.224-0.5-0.5s0.224-0.5,0.5-0.5h4c0.276,0,0.5-0.224,0.5-0.5v-6c0-1.378-1.122-2.5-2.5-2.5     h-17C2.122,9,1,10.122,1,11.5v6C1,17.776,1.224,18,1.5,18h4C5.776,18,6,18.224,6,18.5S5.776,19,5.5,19h-4     C0.673,19,0,18.327,0,17.5v-6C0,9.57,1.57,8,3.5,8h17c1.93,0,3.5,1.57,3.5,3.5v6C24,18.327,23.327,19,22.5,19z"></path></g><g><path d="M18.5,24h-13C5.224,24,5,23.776,5,23.5v-9C5,14.224,5.224,14,5.5,14h13c0.276,0,0.5,0.224,0.5,0.5v9     C19,23.776,18.776,24,18.5,24z M6,23h12v-8H6V23z"></path></g><g><path d="M18.5,9h-13C5.224,9,5,8.776,5,8.5v-8C5,0.224,5.224,0,5.5,0h13C18.776,0,19,0.224,19,0.5v8C19,8.776,18.776,9,18.5,9z      M6,8h12V1H6V8z"></path></g><g><path d="M16.5,21h-9C7.224,21,7,20.776,7,20.5S7.224,20,7.5,20h9c0.276,0,0.5,0.224,0.5,0.5S16.776,21,16.5,21z"></path></g><g><path d="M16.5,18h-9C7.224,18,7,17.776,7,17.5S7.224,17,7.5,17h9c0.276,0,0.5,0.224,0.5,0.5S16.776,18,16.5,18z"></path></g></g></g></svg>