<svg xmlns="http://www.w3.org/2000/svg" xmlns:xlink="http://www.w3.org/1999/xlink" version="1.1" x="0px" y="0px" viewBox="0 0 66 66" style="enable-background:new 0 0 66 66;" xml:space="preserve"><g><path d="M55,19.9V4c0-1.7-1.4-3-3-3H14c-1.7,0-3,1.4-3,3v15.9c-6,6.1-6.4,6.2-6.3,6.7v0v34.9c0,1,0.4,1.9,1,2.5c0,0,0,0,0,0   c0,0,0,0,0,0c0.6,0.6,1.5,1,2.5,1h49.4c1,0,1.9-0.4,2.5-1c0,0,0,0,0,0c0,0,0,0,0,0c0.6-0.6,1-1.5,1-2.5V26.6   C61.3,25.9,61.2,26.2,55,19.9z M59.3,61.4c0,0,0,0.1,0,0.1L43,45.3L59.3,29V61.4z M58.9,26.6L55,30.4v-7.7L58.9,26.6z M14,3h38   c0.6,0,1,0.5,1,1v28.4L40.9,44.6c0,0,0,0,0,0s0,0,0,0L33,52.4l-20-20V4C13,3.5,13.4,3,14,3z M6.8,61.6c0,0,0-0.1,0-0.1V29L23,45.3   L6.8,61.6z M11,22.7v7.7l-3.8-3.8L11,22.7z M8.3,63c0,0-0.1,0-0.1,0l16.3-16.3l7.8,7.8c0.4,0.4,1,0.4,1.4,0l7.8-7.8L57.8,63   c0,0-0.1,0-0.1,0H8.3z"></path><path d="M18.1,30.6C18.1,30.6,18.1,30.6,18.1,30.6l29.9,0c0.6,0,1-0.4,1-1s-0.4-1-1-1c0,0,0,0,0,0l-29.9,0c-0.6,0-1,0.4-1,1   S17.5,30.6,18.1,30.6z"></path><path d="M18.1,9.3H48c0.6,0,1-0.4,1-1s-0.4-1-1-1H18.1c-0.6,0-1,0.4-1,1S17.5,9.3,18.1,9.3z"></path><path d="M40.6,35.7L40.6,35.7l-15.2,0c-0.6,0-1,0.4-1,1s0.4,1,1,1h0l15.2,0c0.6,0,1-0.4,1-1S41.1,35.7,40.6,35.7z"></path><path d="M18.1,16.4H48c0.6,0,1-0.4,1-1s-0.4-1-1-1H18.1c-0.6,0-1,0.4-1,1S17.5,16.4,18.1,16.4z"></path><path d="M18.1,23.5H48c0.6,0,1-0.4,1-1s-0.4-1-1-1H18.1c-0.6,0-1,0.4-1,1S17.5,23.5,18.1,23.5z"></path></g></svg>