<svg xmlns="http://www.w3.org/2000/svg" data-name="Слой 1" viewBox="0 0 128 128" x="0px" y="0px"><title>Calendar, Dates, Months, Schedule, Planning</title><path d="M126,23.11H95.25V6.92a2,2,0,0,0-4,0V23.11H36.75V6.92a2,2,0,0,0-4,0V23.11H2a2,2,0,0,0-2,2v96a2,2,0,0,0,2,2H126a2,2,0,0,0,2-2v-96A2,2,0,0,0,126,23.11Zm-93.25,4v8.25a2,2,0,0,0,4,0V27.11h54.5v8.25a2,2,0,1,0,4,0V27.11H124V48.42H4V27.11ZM4,119.08V52.42H124v66.66Z"></path><path d="M112.5,77.32a2,2,0,0,0,0-4H95.25V60.42a2,2,0,0,0-4,0v12.9H66V60.42a2,2,0,0,0-4,0v12.9H36.75V60.42a2,2,0,0,0-4,0v12.9H15.5a2,2,0,0,0,0,4H32.75V93.51H15.5a2,2,0,0,0,0,4H32.75v14.16a2,2,0,0,0,4,0V97.51H62v14.16a2,2,0,0,0,4,0V97.51H91.25v14.16a2,2,0,0,0,4,0V97.51H112.5a2,2,0,0,0,0-4H95.25V77.32ZM36.75,93.51V77.32H62V93.51Zm54.5,0H66V77.32H91.25Z"></path></svg>